<svg xmlns="http://www.w3.org/2000/svg" xmlns:svg="http://www.w3.org/2000/svg" id="svg5" width="422" height="190" version="1.1" viewBox="0 0 111.654 50.271"><defs id="defs2"><rect id="rect825" width="166.154" height="60.182" x="176.62" y="311.375"/><rect id="rect26645" width="166.154" height="60.182" x="176.62" y="311.375"/></defs><g id="layer1"><g id="g18083" transform="translate(13.217458,-1.9581419)"><g id="g19553"><g id="g25431"><g id="g26866"><g id="g28732" transform="translate(-11.381699,-127.4016)"><g id="g5685" transform="translate(0.36715155,0.4895354)"><path id="path13223" style="fill:#ececec;stroke:#fff;stroke-width:.782251;stroke-miterlimit:4;stroke-dasharray:none;stroke-opacity:1" d="m 89.583673,129.96487 a 9.6161426,9.239039 0 0 0 -8.186806,4.40395 7.6120377,7.4377159 0 0 0 -1.835908,-0.22033 7.6120377,7.4377159 0 0 0 -7.612197,7.43766 7.6120377,7.4377159 0 0 0 0.0635,0.92333 8.3093233,7.7863596 0 0 0 -6.339102,7.5605 8.3093233,7.7863596 0 0 0 8.309294,7.78639 8.3093233,7.7863596 0 0 0 4.402222,-1.18879 10.575503,9.5295739 0 0 0 7.974799,3.28042 10.575503,9.5295739 0 0 0 9.921738,-6.2475 7.6701459,8.3674309 0 0 0 4.023997,1.25054 7.6701459,8.3674309 0 0 0 7.67014,-8.36759 7.6701459,8.3674309 0 0 0 -7.67014,-8.36724 7.6701459,8.3674309 0 0 0 -1.150951,0.0951 9.6161426,9.239039 0 0 0 -9.570583,-8.34643 z"/><path id="path13620" style="fill:#ccc;stroke:#fff;stroke-width:.717689;stroke-miterlimit:4;stroke-dasharray:none;stroke-opacity:1" d="m 27.209228,144.04162 a 11.242082,10.631863 0 0 0 -9.571072,5.06787 8.8991141,8.558983 0 0 0 -2.146331,-0.25355 8.8991141,8.558983 0 0 0 -8.8993042,8.55891 8.8991141,8.558983 0 0 0 0.074261,1.06254 9.7143004,8.9601866 0 0 0 -7.41093974,8.70027 9.7143004,8.9601866 0 0 0 9.71426084,8.96022 9.7143004,8.9601866 0 0 0 5.1465701,-1.368 12.363655,10.966197 0 0 0 9.323217,3.77496 12.363655,10.966197 0 0 0 11.599355,-7.18935 8.967048,9.6288562 0 0 0 4.704398,1.43908 8.967048,9.6288562 0 0 0 8.967049,-9.62904 8.967048,9.6288562 0 0 0 -8.967049,-9.62864 8.967048,9.6288562 0 0 0 -1.345558,0.1094 11.242082,10.631863 0 0 0 -11.188834,-9.60467 z"/><text id="text26643" transform="matrix(0.55289934,0,0,0.55289934,-75.912826,-34.121263)" xml:space="preserve" style="font-style:normal;font-variant:normal;font-weight:600;font-stretch:normal;font-size:40px;line-height:0;font-family:Poppins;-inkscape-font-specification:'Poppins Semi-Bold';letter-spacing:3px;word-spacing:0;white-space:pre;shape-inside:url(#rect26645);fill:#000;fill-opacity:1;stroke:#fff;stroke-opacity:1"><tspan id="tspan5725" x="176.621" y="346.056"><tspan style="font-weight:700;line-height:1.25;font-family:Pacifico;-inkscape-font-specification:'Pacifico Bold'" id="tspan5723">Cloudy</tspan></tspan></text></g></g></g></g></g></g></g></svg>